<mxfile host="app.diagrams.net" agent="Mozilla/5.0 (Windows NT 10.0; Win64; x64) AppleWebKit/537.36 (KHTML, like Gecko) Chrome/138.0.0.0 Safari/537.36 Edg/138.0.0.0" version="28.0.6">
  <diagram name="Page-1" id="mhijF9KB-jVJDRh60u7N">
    <mxGraphModel dx="1306" dy="976" grid="1" gridSize="10" guides="1" tooltips="1" connect="1" arrows="1" fold="1" page="1" pageScale="1" pageWidth="850" pageHeight="1100" math="0" shadow="0">
      <root>
        <mxCell id="0" />
        <mxCell id="1" parent="0" />
        <mxCell id="4jxn0_5u9f8x65HwGdR8-5" value="ACES&lt;div&gt;&lt;br&gt;&lt;/div&gt;&lt;div style=&quot;text-align: left;&quot;&gt;&lt;i&gt;◘ MME&lt;/i&gt;&lt;/div&gt;&lt;div style=&quot;text-align: left;&quot;&gt;&lt;i&gt;◘ Pilotage Medicals&lt;/i&gt;&lt;/div&gt;&lt;div style=&quot;text-align: left;&quot;&gt;&lt;i style=&quot;background-color: transparent; color: light-dark(rgb(35, 47, 62), rgb(189, 199, 212));&quot;&gt;◘ Pilotage CoC&lt;/i&gt;&lt;/div&gt;&lt;div style=&quot;text-align: left;&quot;&gt;&lt;i&gt;◘ ENG CoC&lt;/i&gt;&lt;/div&gt;&lt;div style=&quot;text-align: left;&quot;&gt;&lt;i&gt;◘ NAU CoC&lt;/i&gt;&lt;/div&gt;&lt;div style=&quot;text-align: left;&quot;&gt;&lt;i&gt;◘ Training Schools&lt;/i&gt;&lt;/div&gt;" style="sketch=0;outlineConnect=0;fontColor=#232F3E;gradientColor=none;fillColor=#C925D1;strokeColor=none;dashed=0;verticalLabelPosition=bottom;verticalAlign=top;align=center;html=1;fontSize=12;fontStyle=0;aspect=fixed;pointerEvents=1;shape=mxgraph.aws4.rds_oracle_instance;" parent="1" vertex="1">
          <mxGeometry x="680" y="620" width="78" height="78" as="geometry" />
        </mxCell>
        <mxCell id="4jxn0_5u9f8x65HwGdR8-6" value="SCT" style="image;aspect=fixed;html=1;points=[];align=center;fontSize=12;image=img/lib/azure2/power_platform/Dataverse.svg;" parent="1" vertex="1">
          <mxGeometry x="1001.3600000000001" y="630" width="75.27" height="58" as="geometry" />
        </mxCell>
        <mxCell id="4jxn0_5u9f8x65HwGdR8-7" value="MMER&lt;div&gt;&lt;br&gt;&lt;/div&gt;&lt;div&gt;&lt;i&gt;◘ Medical Exam Reports&lt;/i&gt;&lt;/div&gt;" style="sketch=0;outlineConnect=0;fontColor=#232F3E;gradientColor=none;fillColor=#C925D1;strokeColor=none;dashed=0;verticalLabelPosition=bottom;verticalAlign=top;align=center;html=1;fontSize=12;fontStyle=0;aspect=fixed;pointerEvents=1;shape=mxgraph.aws4.rds_postgresql_instance;" parent="1" vertex="1">
          <mxGeometry x="202.66000000000008" y="620" width="78" height="78" as="geometry" />
        </mxCell>
        <mxCell id="4jxn0_5u9f8x65HwGdR8-66" style="edgeStyle=orthogonalEdgeStyle;rounded=0;orthogonalLoop=1;jettySize=auto;html=1;fillColor=#e1d5e7;strokeColor=#9673a6;" parent="1" source="4jxn0_5u9f8x65HwGdR8-24" target="4jxn0_5u9f8x65HwGdR8-6" edge="1">
          <mxGeometry relative="1" as="geometry" />
        </mxCell>
        <mxCell id="4jxn0_5u9f8x65HwGdR8-24" value="Seafarer Certification&amp;nbsp;&lt;div&gt;Toolbox&amp;nbsp;&lt;span style=&quot;background-color: light-dark(#ffffff, var(--ge-dark-color, #121212)); color: light-dark(rgb(0, 0, 0), rgb(255, 255, 255));&quot;&gt;(SCT)&lt;/span&gt;&lt;/div&gt;" style="image;aspect=fixed;html=1;points=[];align=center;fontSize=12;image=img/lib/azure2/power_platform/PowerApps.svg;" parent="1" vertex="1">
          <mxGeometry x="1005" y="210" width="68" height="65.16" as="geometry" />
        </mxCell>
        <mxCell id="4jxn0_5u9f8x65HwGdR8-27" value="MPDIS&lt;div&gt;&lt;br&gt;&lt;/div&gt;&lt;div style=&quot;text-align: left;&quot;&gt;&lt;i&gt;◘ Seafarer Profiles&lt;/i&gt;&lt;/div&gt;&lt;div style=&quot;text-align: left;&quot;&gt;&lt;i&gt;◘ Seafarer ID&lt;/i&gt;&lt;/div&gt;" style="sketch=0;outlineConnect=0;fontColor=#232F3E;gradientColor=none;fillColor=#C925D1;strokeColor=none;dashed=0;verticalLabelPosition=bottom;verticalAlign=top;align=center;html=1;fontSize=12;fontStyle=0;aspect=fixed;pointerEvents=1;shape=mxgraph.aws4.rds_oracle_instance;" parent="1" vertex="1">
          <mxGeometry x="840" y="620" width="78" height="78" as="geometry" />
        </mxCell>
        <mxCell id="4jxn0_5u9f8x65HwGdR8-53" style="edgeStyle=orthogonalEdgeStyle;rounded=0;orthogonalLoop=1;jettySize=auto;html=1;" parent="1" source="4jxn0_5u9f8x65HwGdR8-28" target="4jxn0_5u9f8x65HwGdR8-5" edge="1">
          <mxGeometry relative="1" as="geometry">
            <Array as="points">
              <mxPoint x="762" y="570" />
              <mxPoint x="719" y="570" />
            </Array>
          </mxGeometry>
        </mxCell>
        <mxCell id="4jxn0_5u9f8x65HwGdR8-28" value="ACES" style="aspect=fixed;sketch=0;html=1;dashed=0;whitespace=wrap;verticalLabelPosition=bottom;verticalAlign=top;fillColor=#2875E2;strokeColor=#ffffff;points=[[0.005,0.63,0],[0.1,0.2,0],[0.9,0.2,0],[0.5,0,0],[0.995,0.63,0],[0.72,0.99,0],[0.5,1,0],[0.28,0.99,0]];shape=mxgraph.kubernetes.icon2;kubernetesLabel=1;prIcon=api" parent="1" vertex="1">
          <mxGeometry x="720.0000000000001" y="430" width="83.33" height="80" as="geometry" />
        </mxCell>
        <mxCell id="4jxn0_5u9f8x65HwGdR8-54" value="" style="edgeStyle=orthogonalEdgeStyle;rounded=0;orthogonalLoop=1;jettySize=auto;html=1;" parent="1" source="4jxn0_5u9f8x65HwGdR8-30" target="4jxn0_5u9f8x65HwGdR8-7" edge="1">
          <mxGeometry relative="1" as="geometry" />
        </mxCell>
        <mxCell id="4jxn0_5u9f8x65HwGdR8-30" value="MMER" style="aspect=fixed;sketch=0;html=1;dashed=0;whitespace=wrap;verticalLabelPosition=bottom;verticalAlign=top;fillColor=#2875E2;strokeColor=#ffffff;points=[[0.005,0.63,0],[0.1,0.2,0],[0.9,0.2,0],[0.5,0,0],[0.995,0.63,0],[0.72,0.99,0],[0.5,1,0],[0.28,0.99,0]];shape=mxgraph.kubernetes.icon2;kubernetesLabel=1;prIcon=api" parent="1" vertex="1">
          <mxGeometry x="200" y="430" width="83.33" height="80" as="geometry" />
        </mxCell>
        <mxCell id="4jxn0_5u9f8x65HwGdR8-56" value="" style="edgeStyle=orthogonalEdgeStyle;rounded=0;orthogonalLoop=1;jettySize=auto;html=1;" parent="1" source="4jxn0_5u9f8x65HwGdR8-31" target="4jxn0_5u9f8x65HwGdR8-27" edge="1">
          <mxGeometry relative="1" as="geometry">
            <Array as="points">
              <mxPoint x="922" y="570" />
              <mxPoint x="879" y="570" />
            </Array>
          </mxGeometry>
        </mxCell>
        <mxCell id="4jxn0_5u9f8x65HwGdR8-31" value="MPDIS" style="aspect=fixed;sketch=0;html=1;dashed=0;whitespace=wrap;verticalLabelPosition=bottom;verticalAlign=top;fillColor=#2875E2;strokeColor=#ffffff;points=[[0.005,0.63,0],[0.1,0.2,0],[0.9,0.2,0],[0.5,0,0],[0.995,0.63,0],[0.72,0.99,0],[0.5,1,0],[0.28,0.99,0]];shape=mxgraph.kubernetes.icon2;kubernetesLabel=1;prIcon=api" parent="1" vertex="1">
          <mxGeometry x="879.9999999999999" y="430" width="83.33" height="80" as="geometry" />
        </mxCell>
        <mxCell id="aN9N_ZGkQkoLW1dGAdHF-71" style="edgeStyle=orthogonalEdgeStyle;rounded=0;orthogonalLoop=1;jettySize=auto;html=1;" edge="1" parent="1" source="4jxn0_5u9f8x65HwGdR8-32" target="4jxn0_5u9f8x65HwGdR8-5">
          <mxGeometry relative="1" as="geometry">
            <Array as="points">
              <mxPoint x="684" y="570" />
              <mxPoint x="719" y="570" />
            </Array>
          </mxGeometry>
        </mxCell>
        <mxCell id="4jxn0_5u9f8x65HwGdR8-32" value="ACES" style="image;aspect=fixed;html=1;points=[];align=center;fontSize=12;image=img/lib/azure2/app_services/App_Service_Domains.svg;" parent="1" vertex="1">
          <mxGeometry x="650" y="215.07999999999998" width="68" height="55.00000000000001" as="geometry" />
        </mxCell>
        <mxCell id="aN9N_ZGkQkoLW1dGAdHF-72" style="edgeStyle=orthogonalEdgeStyle;rounded=0;orthogonalLoop=1;jettySize=auto;html=1;" edge="1" parent="1" source="4jxn0_5u9f8x65HwGdR8-34" target="4jxn0_5u9f8x65HwGdR8-27">
          <mxGeometry relative="1" as="geometry">
            <Array as="points">
              <mxPoint x="844" y="570" />
              <mxPoint x="879" y="570" />
            </Array>
          </mxGeometry>
        </mxCell>
        <mxCell id="4jxn0_5u9f8x65HwGdR8-34" value="MPDIS" style="image;aspect=fixed;html=1;points=[];align=center;fontSize=12;image=img/lib/azure2/app_services/App_Service_Domains.svg;" parent="1" vertex="1">
          <mxGeometry x="810" y="215.07999999999998" width="68" height="55.00000000000001" as="geometry" />
        </mxCell>
        <mxCell id="4jxn0_5u9f8x65HwGdR8-35" value="SSA" style="image;aspect=fixed;html=1;points=[];align=center;fontSize=12;image=img/lib/azure2/app_services/App_Service_Domains.svg;" parent="1" vertex="1">
          <mxGeometry x="490" y="215.07999999999998" width="68" height="55.00000000000001" as="geometry" />
        </mxCell>
        <mxCell id="4jxn0_5u9f8x65HwGdR8-36" value="MMH" style="image;aspect=fixed;html=1;points=[];align=center;fontSize=12;image=img/lib/azure2/app_services/App_Service_Domains.svg;" parent="1" vertex="1">
          <mxGeometry x="21" y="215.07999999999998" width="68" height="55.00000000000001" as="geometry" />
        </mxCell>
        <mxCell id="4jxn0_5u9f8x65HwGdR8-37" value="MTA Admin" style="image;aspect=fixed;html=1;points=[];align=center;fontSize=12;image=img/lib/azure2/app_services/App_Service_Domains.svg;" parent="1" vertex="1">
          <mxGeometry x="330" y="215.07999999999998" width="68" height="55.00000000000001" as="geometry" />
        </mxCell>
        <mxCell id="4jxn0_5u9f8x65HwGdR8-55" value="" style="edgeStyle=orthogonalEdgeStyle;rounded=0;orthogonalLoop=1;jettySize=auto;html=1;" parent="1" source="4jxn0_5u9f8x65HwGdR8-38" target="4jxn0_5u9f8x65HwGdR8-40" edge="1">
          <mxGeometry relative="1" as="geometry" />
        </mxCell>
        <mxCell id="4jxn0_5u9f8x65HwGdR8-38" value="MTA" style="aspect=fixed;sketch=0;html=1;dashed=0;whitespace=wrap;verticalLabelPosition=bottom;verticalAlign=top;fillColor=#2875E2;strokeColor=#ffffff;points=[[0.005,0.63,0],[0.1,0.2,0],[0.9,0.2,0],[0.5,0,0],[0.995,0.63,0],[0.72,0.99,0],[0.5,1,0],[0.28,0.99,0]];shape=mxgraph.kubernetes.icon2;kubernetesLabel=1;prIcon=api" parent="1" vertex="1">
          <mxGeometry x="40.00000000000006" y="430" width="83.33" height="80" as="geometry" />
        </mxCell>
        <mxCell id="4jxn0_5u9f8x65HwGdR8-40" value="MTA&lt;div&gt;&lt;br&gt;&lt;/div&gt;&lt;div style=&quot;text-align: left;&quot;&gt;&lt;div&gt;&lt;i&gt;◘ MME Online Accounts&lt;/i&gt;&lt;/div&gt;&lt;div&gt;&lt;i&gt;◘ Service Agreements&lt;/i&gt;&lt;/div&gt;&lt;div&gt;&lt;i&gt;◘ Notices&lt;/i&gt;&lt;/div&gt;&lt;div&gt;&lt;i&gt;◘ External User Roles&lt;/i&gt;&lt;/div&gt;&lt;/div&gt;" style="sketch=0;outlineConnect=0;fontColor=#232F3E;gradientColor=none;fillColor=#C925D1;strokeColor=none;dashed=0;verticalLabelPosition=bottom;verticalAlign=top;align=center;html=1;fontSize=12;fontStyle=0;aspect=fixed;pointerEvents=1;shape=mxgraph.aws4.rds_oracle_instance;" parent="1" vertex="1">
          <mxGeometry x="42.670000000000016" y="620" width="78" height="78" as="geometry" />
        </mxCell>
        <mxCell id="4jxn0_5u9f8x65HwGdR8-78" value="" style="edgeStyle=orthogonalEdgeStyle;rounded=0;orthogonalLoop=1;jettySize=auto;html=1;" parent="1" source="4jxn0_5u9f8x65HwGdR8-45" target="4jxn0_5u9f8x65HwGdR8-36" edge="1">
          <mxGeometry relative="1" as="geometry" />
        </mxCell>
        <mxCell id="4jxn0_5u9f8x65HwGdR8-45" value="MME" style="shape=image;html=1;verticalAlign=top;verticalLabelPosition=bottom;labelBackgroundColor=#ffffff;imageAspect=0;aspect=fixed;image=https://icons.diagrams.net/icon-cache1/Kameleon_Free_Pack-2373/Nurse-1-967.svg" parent="1" vertex="1">
          <mxGeometry y="24" width="110" height="110" as="geometry" />
        </mxCell>
        <mxCell id="4jxn0_5u9f8x65HwGdR8-61" style="edgeStyle=orthogonalEdgeStyle;rounded=0;orthogonalLoop=1;jettySize=auto;html=1;" parent="1" source="4jxn0_5u9f8x65HwGdR8-50" target="4jxn0_5u9f8x65HwGdR8-35" edge="1">
          <mxGeometry relative="1" as="geometry">
            <mxPoint x="290.0000000000002" y="215.07999999999993" as="targetPoint" />
          </mxGeometry>
        </mxCell>
        <mxCell id="4jxn0_5u9f8x65HwGdR8-62" value="" style="edgeStyle=orthogonalEdgeStyle;rounded=0;orthogonalLoop=1;jettySize=auto;html=1;" parent="1" source="4jxn0_5u9f8x65HwGdR8-50" target="4jxn0_5u9f8x65HwGdR8-34" edge="1">
          <mxGeometry relative="1" as="geometry" />
        </mxCell>
        <mxCell id="4jxn0_5u9f8x65HwGdR8-63" style="edgeStyle=orthogonalEdgeStyle;rounded=0;orthogonalLoop=1;jettySize=auto;html=1;" parent="1" source="4jxn0_5u9f8x65HwGdR8-50" target="4jxn0_5u9f8x65HwGdR8-32" edge="1">
          <mxGeometry relative="1" as="geometry">
            <mxPoint x="579.7" y="215.07999999999993" as="targetPoint" />
          </mxGeometry>
        </mxCell>
        <mxCell id="4jxn0_5u9f8x65HwGdR8-64" style="edgeStyle=orthogonalEdgeStyle;rounded=0;orthogonalLoop=1;jettySize=auto;html=1;" parent="1" source="4jxn0_5u9f8x65HwGdR8-50" target="4jxn0_5u9f8x65HwGdR8-37" edge="1">
          <mxGeometry relative="1" as="geometry" />
        </mxCell>
        <mxCell id="4jxn0_5u9f8x65HwGdR8-50" value="MMU" style="sketch=0;outlineConnect=0;fontColor=#232F3E;gradientColor=none;fillColor=#232F3D;strokeColor=none;dashed=0;verticalLabelPosition=bottom;verticalAlign=top;align=center;html=1;fontSize=12;fontStyle=0;aspect=fixed;pointerEvents=1;shape=mxgraph.aws4.users;" parent="1" vertex="1">
          <mxGeometry x="565" y="56" width="78" height="78" as="geometry" />
        </mxCell>
        <mxCell id="4jxn0_5u9f8x65HwGdR8-65" value="" style="edgeStyle=orthogonalEdgeStyle;rounded=0;orthogonalLoop=1;jettySize=auto;html=1;" parent="1" source="4jxn0_5u9f8x65HwGdR8-51" target="4jxn0_5u9f8x65HwGdR8-24" edge="1">
          <mxGeometry relative="1" as="geometry" />
        </mxCell>
        <mxCell id="4jxn0_5u9f8x65HwGdR8-51" value="Seafarer Certification&lt;div&gt;Regional Teams&lt;/div&gt;" style="sketch=0;outlineConnect=0;fontColor=#232F3E;gradientColor=none;fillColor=#232F3D;strokeColor=none;dashed=0;verticalLabelPosition=bottom;verticalAlign=top;align=center;html=1;fontSize=12;fontStyle=0;aspect=fixed;pointerEvents=1;shape=mxgraph.aws4.users;" parent="1" vertex="1">
          <mxGeometry x="1000" y="56" width="78" height="78" as="geometry" />
        </mxCell>
        <mxCell id="4jxn0_5u9f8x65HwGdR8-68" style="edgeStyle=orthogonalEdgeStyle;rounded=0;orthogonalLoop=1;jettySize=auto;html=1;entryX=0.5;entryY=0;entryDx=0;entryDy=0;entryPerimeter=0;fillColor=#dae8fc;strokeColor=#6c8ebf;" parent="1" source="4jxn0_5u9f8x65HwGdR8-36" target="4jxn0_5u9f8x65HwGdR8-30" edge="1">
          <mxGeometry relative="1" as="geometry">
            <Array as="points">
              <mxPoint x="55" y="370" />
              <mxPoint x="242" y="370" />
            </Array>
          </mxGeometry>
        </mxCell>
        <mxCell id="4jxn0_5u9f8x65HwGdR8-69" style="edgeStyle=orthogonalEdgeStyle;rounded=0;orthogonalLoop=1;jettySize=auto;html=1;entryX=0.5;entryY=0;entryDx=0;entryDy=0;entryPerimeter=0;fillColor=#dae8fc;strokeColor=#6c8ebf;" parent="1" source="4jxn0_5u9f8x65HwGdR8-36" target="4jxn0_5u9f8x65HwGdR8-31" edge="1">
          <mxGeometry relative="1" as="geometry">
            <Array as="points">
              <mxPoint x="788" y="370" />
              <mxPoint x="313" y="370" />
            </Array>
          </mxGeometry>
        </mxCell>
        <mxCell id="4jxn0_5u9f8x65HwGdR8-70" style="edgeStyle=orthogonalEdgeStyle;rounded=0;orthogonalLoop=1;jettySize=auto;html=1;entryX=0.5;entryY=0;entryDx=0;entryDy=0;entryPerimeter=0;fillColor=#dae8fc;strokeColor=#6c8ebf;" parent="1" source="4jxn0_5u9f8x65HwGdR8-36" target="4jxn0_5u9f8x65HwGdR8-28" edge="1">
          <mxGeometry relative="1" as="geometry">
            <Array as="points">
              <mxPoint x="55" y="370" />
              <mxPoint x="762" y="370" />
            </Array>
          </mxGeometry>
        </mxCell>
        <mxCell id="4jxn0_5u9f8x65HwGdR8-74" style="edgeStyle=orthogonalEdgeStyle;rounded=0;orthogonalLoop=1;jettySize=auto;html=1;entryX=0.9;entryY=0.2;entryDx=0;entryDy=0;entryPerimeter=0;" parent="1" source="4jxn0_5u9f8x65HwGdR8-37" target="4jxn0_5u9f8x65HwGdR8-38" edge="1">
          <mxGeometry relative="1" as="geometry" />
        </mxCell>
        <mxCell id="4jxn0_5u9f8x65HwGdR8-77" style="edgeStyle=orthogonalEdgeStyle;rounded=0;orthogonalLoop=1;jettySize=auto;html=1;entryX=0.1;entryY=0.2;entryDx=0;entryDy=0;entryPerimeter=0;fillColor=#ffe6cc;strokeColor=#d79b00;" parent="1" source="4jxn0_5u9f8x65HwGdR8-35" target="4jxn0_5u9f8x65HwGdR8-30" edge="1">
          <mxGeometry relative="1" as="geometry">
            <Array as="points">
              <mxPoint x="367" y="400" />
              <mxPoint x="405" y="400" />
            </Array>
          </mxGeometry>
        </mxCell>
        <mxCell id="4jxn0_5u9f8x65HwGdR8-79" style="edgeStyle=orthogonalEdgeStyle;rounded=0;orthogonalLoop=1;jettySize=auto;html=1;entryX=0.9;entryY=0.2;entryDx=0;entryDy=0;entryPerimeter=0;fillColor=#e1d5e7;strokeColor=#9673a6;" parent="1" source="4jxn0_5u9f8x65HwGdR8-24" target="4jxn0_5u9f8x65HwGdR8-28" edge="1">
          <mxGeometry relative="1" as="geometry">
            <Array as="points">
              <mxPoint x="989" y="340" />
              <mxPoint x="186" y="340" />
            </Array>
          </mxGeometry>
        </mxCell>
        <mxCell id="4jxn0_5u9f8x65HwGdR8-80" style="edgeStyle=orthogonalEdgeStyle;rounded=0;orthogonalLoop=1;jettySize=auto;html=1;entryX=0.9;entryY=0.2;entryDx=0;entryDy=0;entryPerimeter=0;fillColor=#e1d5e7;strokeColor=#9673a6;" parent="1" source="4jxn0_5u9f8x65HwGdR8-24" target="4jxn0_5u9f8x65HwGdR8-31" edge="1">
          <mxGeometry relative="1" as="geometry">
            <Array as="points">
              <mxPoint x="989" y="340" />
              <mxPoint x="346" y="340" />
            </Array>
          </mxGeometry>
        </mxCell>
        <mxCell id="aN9N_ZGkQkoLW1dGAdHF-8" style="edgeStyle=orthogonalEdgeStyle;rounded=0;orthogonalLoop=1;jettySize=auto;html=1;" edge="1" parent="1" source="aN9N_ZGkQkoLW1dGAdHF-2" target="aN9N_ZGkQkoLW1dGAdHF-4">
          <mxGeometry relative="1" as="geometry" />
        </mxCell>
        <mxCell id="aN9N_ZGkQkoLW1dGAdHF-2" value="DMS" style="aspect=fixed;sketch=0;html=1;dashed=0;whitespace=wrap;verticalLabelPosition=bottom;verticalAlign=top;fillColor=#2875E2;strokeColor=#ffffff;points=[[0.005,0.63,0],[0.1,0.2,0],[0.9,0.2,0],[0.5,0,0],[0.995,0.63,0],[0.72,0.99,0],[0.5,1,0],[0.28,0.99,0]];shape=mxgraph.kubernetes.icon2;kubernetesLabel=1;prIcon=api" vertex="1" parent="1">
          <mxGeometry x="359.99500000000006" y="430" width="83.33" height="80" as="geometry" />
        </mxCell>
        <mxCell id="aN9N_ZGkQkoLW1dGAdHF-9" style="edgeStyle=orthogonalEdgeStyle;rounded=0;orthogonalLoop=1;jettySize=auto;html=1;" edge="1" parent="1" source="aN9N_ZGkQkoLW1dGAdHF-3" target="aN9N_ZGkQkoLW1dGAdHF-5">
          <mxGeometry relative="1" as="geometry" />
        </mxCell>
        <mxCell id="aN9N_ZGkQkoLW1dGAdHF-3" value="WLM" style="aspect=fixed;sketch=0;html=1;dashed=0;whitespace=wrap;verticalLabelPosition=bottom;verticalAlign=top;fillColor=#2875E2;strokeColor=#ffffff;points=[[0.005,0.63,0],[0.1,0.2,0],[0.9,0.2,0],[0.5,0,0],[0.995,0.63,0],[0.72,0.99,0],[0.5,1,0],[0.28,0.99,0]];shape=mxgraph.kubernetes.icon2;kubernetesLabel=1;prIcon=api" vertex="1" parent="1">
          <mxGeometry x="519.9950000000001" y="430" width="83.33" height="80" as="geometry" />
        </mxCell>
        <mxCell id="aN9N_ZGkQkoLW1dGAdHF-4" value="DMS&lt;div&gt;&lt;br&gt;&lt;/div&gt;&lt;div style=&quot;text-align: left;&quot;&gt;&lt;i&gt;◘ Scanned Medical Files&lt;/i&gt;&lt;/div&gt;&lt;div style=&quot;text-align: left;&quot;&gt;&lt;i&gt;◘ Faxed Medical Reports&lt;/i&gt;&lt;/div&gt;&lt;div style=&quot;text-align: left;&quot;&gt;&lt;i&gt;◘ Emailed Medical Reports&lt;/i&gt;&lt;i&gt;&lt;/i&gt;&lt;/div&gt;&lt;div style=&quot;text-align: left;&quot;&gt;&lt;i&gt;◘ Client communication&lt;/i&gt;&lt;/div&gt;&lt;div style=&quot;text-align: left;&quot;&gt;&lt;i&gt;◘ Internal communication&lt;/i&gt;&lt;i&gt;&lt;/i&gt;&lt;/div&gt;" style="sketch=0;outlineConnect=0;fontColor=#232F3E;gradientColor=none;fillColor=#C925D1;strokeColor=none;dashed=0;verticalLabelPosition=bottom;verticalAlign=top;align=center;html=1;fontSize=12;fontStyle=0;aspect=fixed;pointerEvents=1;shape=mxgraph.aws4.rds_postgresql_instance;" vertex="1" parent="1">
          <mxGeometry x="362.66" y="620" width="78" height="78" as="geometry" />
        </mxCell>
        <mxCell id="aN9N_ZGkQkoLW1dGAdHF-5" value="WLM&lt;div&gt;&lt;br&gt;&lt;/div&gt;&lt;div style=&quot;text-align: left;&quot;&gt;&lt;i&gt;◘ MMC Service Requests&lt;/i&gt;&lt;/div&gt;&lt;div style=&quot;text-align: left;&quot;&gt;&lt;i&gt;◘ MMU Notes&lt;/i&gt;&lt;/div&gt;&lt;div style=&quot;text-align: left;&quot;&gt;&lt;i&gt;◘ MMU Assessments&lt;/i&gt;&lt;/div&gt;" style="sketch=0;outlineConnect=0;fontColor=#232F3E;gradientColor=none;fillColor=#C925D1;strokeColor=none;dashed=0;verticalLabelPosition=bottom;verticalAlign=top;align=center;html=1;fontSize=12;fontStyle=0;aspect=fixed;pointerEvents=1;shape=mxgraph.aws4.rds_postgresql_instance;" vertex="1" parent="1">
          <mxGeometry x="522.6600000000001" y="620" width="78" height="78" as="geometry" />
        </mxCell>
        <mxCell id="aN9N_ZGkQkoLW1dGAdHF-12" style="edgeStyle=orthogonalEdgeStyle;rounded=0;orthogonalLoop=1;jettySize=auto;html=1;entryX=0.1;entryY=0.2;entryDx=0;entryDy=0;entryPerimeter=0;strokeColor=#d79b00;fillColor=#ffe6cc;" edge="1" parent="1" source="4jxn0_5u9f8x65HwGdR8-35" target="aN9N_ZGkQkoLW1dGAdHF-2">
          <mxGeometry relative="1" as="geometry">
            <Array as="points">
              <mxPoint x="367" y="400" />
              <mxPoint x="726" y="400" />
            </Array>
          </mxGeometry>
        </mxCell>
        <mxCell id="aN9N_ZGkQkoLW1dGAdHF-13" style="edgeStyle=orthogonalEdgeStyle;rounded=0;orthogonalLoop=1;jettySize=auto;html=1;entryX=0.1;entryY=0.2;entryDx=0;entryDy=0;entryPerimeter=0;strokeColor=#d79b00;fillColor=#ffe6cc;" edge="1" parent="1" source="4jxn0_5u9f8x65HwGdR8-35" target="aN9N_ZGkQkoLW1dGAdHF-3">
          <mxGeometry relative="1" as="geometry">
            <Array as="points">
              <mxPoint x="524" y="400" />
              <mxPoint x="528" y="400" />
            </Array>
          </mxGeometry>
        </mxCell>
        <mxCell id="aN9N_ZGkQkoLW1dGAdHF-15" style="edgeStyle=orthogonalEdgeStyle;rounded=0;orthogonalLoop=1;jettySize=auto;html=1;entryX=0.5;entryY=0;entryDx=0;entryDy=0;entryPerimeter=0;fillColor=#dae8fc;strokeColor=#6c8ebf;" edge="1" parent="1" source="4jxn0_5u9f8x65HwGdR8-36" target="aN9N_ZGkQkoLW1dGAdHF-2">
          <mxGeometry relative="1" as="geometry">
            <Array as="points">
              <mxPoint x="55" y="370" />
              <mxPoint x="402" y="370" />
            </Array>
          </mxGeometry>
        </mxCell>
        <mxCell id="aN9N_ZGkQkoLW1dGAdHF-16" style="edgeStyle=orthogonalEdgeStyle;rounded=0;orthogonalLoop=1;jettySize=auto;html=1;entryX=0.5;entryY=0;entryDx=0;entryDy=0;entryPerimeter=0;fillColor=#dae8fc;strokeColor=#6c8ebf;" edge="1" parent="1" source="4jxn0_5u9f8x65HwGdR8-36" target="aN9N_ZGkQkoLW1dGAdHF-3">
          <mxGeometry relative="1" as="geometry">
            <Array as="points">
              <mxPoint x="55" y="370" />
              <mxPoint x="562" y="370" />
            </Array>
          </mxGeometry>
        </mxCell>
        <mxCell id="aN9N_ZGkQkoLW1dGAdHF-17" style="edgeStyle=orthogonalEdgeStyle;rounded=0;orthogonalLoop=1;jettySize=auto;html=1;entryX=0.5;entryY=0;entryDx=0;entryDy=0;entryPerimeter=0;fillColor=#dae8fc;strokeColor=#6c8ebf;" edge="1" parent="1" source="4jxn0_5u9f8x65HwGdR8-36" target="4jxn0_5u9f8x65HwGdR8-38">
          <mxGeometry relative="1" as="geometry">
            <Array as="points">
              <mxPoint x="55" y="370" />
              <mxPoint x="82" y="370" />
            </Array>
          </mxGeometry>
        </mxCell>
        <mxCell id="aN9N_ZGkQkoLW1dGAdHF-69" style="edgeStyle=orthogonalEdgeStyle;rounded=0;orthogonalLoop=1;jettySize=auto;html=1;entryX=0.1;entryY=0.2;entryDx=0;entryDy=0;entryPerimeter=0;fillColor=#ffe6cc;strokeColor=#d79b00;" edge="1" parent="1" source="4jxn0_5u9f8x65HwGdR8-35" target="4jxn0_5u9f8x65HwGdR8-28">
          <mxGeometry relative="1" as="geometry">
            <Array as="points">
              <mxPoint x="524" y="400" />
              <mxPoint x="728" y="400" />
            </Array>
          </mxGeometry>
        </mxCell>
        <mxCell id="aN9N_ZGkQkoLW1dGAdHF-70" style="edgeStyle=orthogonalEdgeStyle;rounded=0;orthogonalLoop=1;jettySize=auto;html=1;entryX=0.1;entryY=0.2;entryDx=0;entryDy=0;entryPerimeter=0;fillColor=#ffe6cc;strokeColor=#d79b00;" edge="1" parent="1" source="4jxn0_5u9f8x65HwGdR8-35" target="4jxn0_5u9f8x65HwGdR8-31">
          <mxGeometry relative="1" as="geometry">
            <Array as="points">
              <mxPoint x="524" y="400" />
              <mxPoint x="888" y="400" />
            </Array>
          </mxGeometry>
        </mxCell>
      </root>
    </mxGraphModel>
  </diagram>
</mxfile>
